<?xml version="1.0" encoding="utf-8"?>
<!-- Generator: Adobe Illustrator 20.0.0, SVG Export Plug-In . SVG Version: 6.00 Build 0)  -->
<svg version="1.1" id="Layer_1" xmlns="http://www.w3.org/2000/svg" xmlns:xlink="http://www.w3.org/1999/xlink" x="0px" y="0px"
	 viewBox="0 0 1280 800" style="enable-background:new 0 0 1280 800;" xml:space="preserve">
<style type="text/css">
	.st0{filter:url(#Adobe_OpacityMaskFilter);}
	.st1{fill:#9F9F9F;}
	.st2{mask:url(#XMLID_2_);fill:url(#XMLID_3_);}
</style>
<defs>
	<filter id="Adobe_OpacityMaskFilter" filterUnits="userSpaceOnUse" x="0" y="0" width="1280" height="800">
		<feColorMatrix  type="matrix" values="1 0 0 0 0  0 1 0 0 0  0 0 1 0 0  0 0 0 1 0"/>
	</filter>
</defs>
<mask maskUnits="userSpaceOnUse" x="0" y="0" width="1280" height="800" id="XMLID_2_">
	<g id="XMLID_229_" class="st0">
		
			<rect id="XMLID_454_" x="8.3" y="779.9" transform="matrix(4.489571e-11 -1 1 4.489571e-11 -771.6263 793.6672)" class="st1" width="5.5" height="5.5"/>
		
			<rect id="XMLID_453_" x="2.8" y="785.4" transform="matrix(4.473050e-11 -1 1 4.473050e-11 -782.6467 793.6672)" class="st1" width="5.5" height="5.5"/>
		
			<rect id="XMLID_452_" x="16.4" y="767.2" transform="matrix(4.489571e-11 -1 1 4.489571e-11 -750.8307 789.115)" class="st1" width="5.5" height="5.5"/>
		
			<rect id="XMLID_451_" x="29.9" y="789" transform="matrix(4.473050e-11 -1 1 4.473050e-11 -759.1121 824.3572)" class="st1" width="5.5" height="5.5"/>
		
			<rect id="XMLID_450_" x="54.6" y="782.6" transform="matrix(4.489571e-11 -1 1 4.489571e-11 -728.0577 842.746)" class="st1" width="5.5" height="5.5"/>
		
			<rect id="XMLID_449_" x="16.4" y="785.4" transform="matrix(4.473050e-11 -1 1 4.473050e-11 -769.0148 807.2991)" class="st1" width="5.5" height="5.5"/>
		
			<rect id="XMLID_448_" x="0" y="753.7" transform="matrix(4.489571e-11 -1 1 4.489571e-11 -753.7213 759.2314)" class="st1" width="5.5" height="5.5"/>
		
			<rect id="XMLID_447_" x="5.5" y="759.2" transform="matrix(4.506091e-11 -1 1 4.506091e-11 -753.7213 770.2519)" class="st1" width="5.5" height="5.5"/>
		
			<rect id="XMLID_446_" x="36" y="770" transform="matrix(4.506091e-11 -1 1 4.506091e-11 -733.9949 811.4611)" class="st1" width="5.5" height="5.5"/>
		
			<rect id="XMLID_445_" x="73.8" y="737.8" transform="matrix(4.489571e-11 -1 1 4.489571e-11 -664.0054 817.0513)" class="st1" width="5.5" height="5.5"/>
		
			<rect id="XMLID_444_" x="38.2" y="741.9" transform="matrix(4.506091e-11 -1 1 4.506091e-11 -703.7761 785.6341)" class="st1" width="5.5" height="5.5"/>
		
			<rect id="XMLID_443_" x="19.1" y="749.3" transform="matrix(4.506091e-11 -1 1 4.506091e-11 -730.1705 773.965)" class="st1" width="5.5" height="5.5"/>
		
			<rect id="XMLID_442_" x="47.5" y="756.5" transform="matrix(4.473050e-11 -1 1 4.473050e-11 -708.9574 809.5055)" class="st1" width="5.5" height="5.5"/>
		
			<rect id="XMLID_441_" x="5.5" y="729.2" transform="matrix(4.506091e-11 -1 1 4.506091e-11 -723.6941 740.2247)" class="st1" width="5.5" height="5.5"/>
		
			<rect id="XMLID_440_" x="112.4" y="777.1" transform="matrix(4.473050e-11 -1 1 4.473050e-11 -664.7414 895.0419)" class="st1" width="5.5" height="5.5"/>
		<g id="XMLID_431_">
			
				<rect id="XMLID_439_" x="129.8" y="711.8" transform="matrix(-1.348505e-10 1 -1 -1.348505e-10 847.0296 582.0062)" class="st1" width="5.5" height="5.5"/>
			
				<rect id="XMLID_438_" x="86.5" y="772.7" transform="matrix(-1.350157e-10 1 -1 -1.350157e-10 864.741 686.2252)" class="st1" width="5.5" height="5.5"/>
			
				<rect id="XMLID_437_" x="50" y="714.5" transform="matrix(-1.346862e-10 1 -1 -1.346862e-10 770.0758 664.4703)" class="st1" width="5.5" height="5.5"/>
			
				<rect id="XMLID_436_" x="178" y="744.7" transform="matrix(-1.350157e-10 1 -1 -1.350157e-10 928.1696 566.7508)" class="st1" width="5.5" height="5.5"/>
			
				<rect id="XMLID_435_" x="147.9" y="785.9" transform="matrix(-1.348505e-10 1 -1 -1.348505e-10 939.3016 638.0503)" class="st1" width="5.5" height="5.5"/>
			
				<rect id="XMLID_434_" x="183.5" y="781.7" transform="matrix(-1.348505e-10 1 -1 -1.348505e-10 970.7188 598.2796)" class="st1" width="5.5" height="5.5"/>
			
				<rect id="XMLID_433_" x="216.1" y="794.5" transform="matrix(-1.348505e-10 1 -1 -1.348505e-10 1016.1282 578.3616)" class="st1" width="5.5" height="5.5"/>
			
				<rect id="XMLID_432_" x="109.2" y="746.6" transform="matrix(-1.340254e-10 1 -1 -1.340254e-10 861.3111 637.3143)" class="st1" width="5.5" height="5.5"/>
		</g>
		
			<rect id="XMLID_430_" x="150.6" y="690.6" transform="matrix(-4.473063e-11 1 -1 -4.473063e-11 846.7318 539.9702)" class="st1" width="5.5" height="5.5"/>
		<g id="XMLID_421_">
			
				<rect id="XMLID_429_" x="205.5" y="696.4" transform="matrix(-4.505989e-11 -1 1 -4.505989e-11 -490.8622 907.4675)" class="st1" width="5.5" height="5.5"/>
			
				<rect id="XMLID_428_" x="162.3" y="635.4" transform="matrix(-4.439998e-11 -1 1 -4.439998e-11 -473.1508 803.2485)" class="st1" width="5.5" height="5.5"/>
			
				<rect id="XMLID_427_" x="125.8" y="693.7" transform="matrix(-4.489558e-11 -1 1 -4.489558e-11 -567.816 825.0035)" class="st1" width="5.5" height="5.5"/>
			
				<rect id="XMLID_426_" x="253.7" y="663.5" transform="matrix(-4.505989e-11 -1 1 -4.505989e-11 -409.7222 922.7229)" class="st1" width="5.5" height="5.5"/>
			
				<rect id="XMLID_425_" x="223.7" y="622.3" transform="matrix(-4.505989e-11 -1 1 -4.505989e-11 -398.5901 851.4234)" class="st1" width="5.5" height="5.5"/>
			
				<rect id="XMLID_424_" x="259.3" y="626.4" transform="matrix(-4.522509e-11 -1 1 -4.522509e-11 -367.173 891.1941)" class="st1" width="5.5" height="5.5"/>
			
				<rect id="XMLID_423_" x="291.9" y="613.7" transform="matrix(-4.522509e-11 -1 1 -4.522509e-11 -321.7636 911.1121)" class="st1" width="5.5" height="5.5"/>
			
				<rect id="XMLID_422_" x="185" y="661.6" transform="matrix(-4.456518e-11 -1 1 -4.456518e-11 -476.5807 852.1595)" class="st1" width="5.5" height="5.5"/>
		</g>
		<g id="XMLID_412_">
			
				<rect id="XMLID_420_" x="298.2" y="761.5" transform="matrix(1.416183e-10 -1 1 1.416183e-10 -463.4656 1065.4597)" class="st1" width="5.5" height="5.9"/>
			
				<rect id="XMLID_419_" x="344.6" y="700.5" transform="matrix(1.409575e-10 -1 1 1.409575e-10 -356.1781 1050.8169)" class="st1" width="5.5" height="5.9"/>
			
				<rect id="XMLID_418_" x="383.6" y="758.8" transform="matrix(1.409575e-10 -1 1 1.409575e-10 -375.3469 1148.0682)" class="st1" width="5.5" height="5.9"/>
			
				<rect id="XMLID_417_" x="246.6" y="728.6" transform="matrix(1.411227e-10 -1 1 1.411227e-10 -482.1403 980.9005)" class="st1" width="5.5" height="5.9"/>
			
				<rect id="XMLID_416_" x="278.8" y="687.4" transform="matrix(1.407932e-10 -1 1 1.407932e-10 -408.7065 971.9026)" class="st1" width="5.5" height="5.9"/>
			
				<rect id="XMLID_415_" x="240.7" y="691.5" transform="matrix(1.411227e-10 -1 1 1.411227e-10 -451.0023 937.9603)" class="st1" width="5.5" height="5.9"/>
			
				<rect id="XMLID_414_" x="205.7" y="678.8" transform="matrix(1.411227e-10 -1 1 1.411227e-10 -473.2375 890.2338)" class="st1" width="5.5" height="5.9"/>
			
				<rect id="XMLID_413_" x="320.2" y="726.7" transform="matrix(1.401333e-10 -1 1 1.401333e-10 -406.7023 1052.6334)" class="st1" width="5.5" height="5.9"/>
		</g>
		<g id="XMLID_403_">
			
				<rect id="XMLID_411_" x="118.7" y="755.7" transform="matrix(1.412879e-10 -1 1 1.412879e-10 -637.1635 880.1095)" class="st1" width="5.5" height="5.9"/>
			
				<rect id="XMLID_410_" x="165" y="694.7" transform="matrix(1.411227e-10 -1 1 1.411227e-10 -529.8761 865.4667)" class="st1" width="5.5" height="5.9"/>
			
				<rect id="XMLID_409_" x="204.1" y="752.9" transform="matrix(1.409575e-10 -1 1 1.409575e-10 -549.0448 962.718)" class="st1" width="5.5" height="5.9"/>
			
				<rect id="XMLID_408_" x="67.1" y="722.7" transform="matrix(1.422782e-10 -1 1 1.422782e-10 -655.8382 795.5504)" class="st1" width="5.5" height="5.9"/>
			
				<rect id="XMLID_407_" x="99.3" y="681.5" transform="matrix(1.396377e-10 -1 1 1.396377e-10 -582.4045 786.5524)" class="st1" width="5.5" height="5.9"/>
			
				<rect id="XMLID_406_" x="61.2" y="685.7" transform="matrix(1.396377e-10 -1 1 1.396377e-10 -624.7003 752.6102)" class="st1" width="5.5" height="5.9"/>
			
				<rect id="XMLID_405_" x="26.2" y="673" transform="matrix(1.421139e-10 -1 1 1.421139e-10 -646.9355 704.8836)" class="st1" width="5.5" height="5.9"/>
			
				<rect id="XMLID_404_" x="140.7" y="720.9" transform="matrix(1.406280e-10 -1 1 1.406280e-10 -580.4003 867.2833)" class="st1" width="5.5" height="5.9"/>
		</g>
		<g id="XMLID_394_">
			
				<rect id="XMLID_402_" x="132.2" y="787.7" transform="matrix(1.416183e-10 -1 1 1.416183e-10 -655.7596 925.5927)" class="st1" width="5.5" height="5.9"/>
			
				<rect id="XMLID_401_" x="178.5" y="726.8" transform="matrix(1.409575e-10 -1 1 1.409575e-10 -548.4722 910.9498)" class="st1" width="5.5" height="5.9"/>
			
				<rect id="XMLID_400_" x="217.5" y="785" transform="matrix(1.409575e-10 -1 1 1.409575e-10 -567.6409 1008.2012)" class="st1" width="5.5" height="5.9"/>
			
				<rect id="XMLID_399_" x="80.5" y="754.8" transform="matrix(1.422782e-10 -1 1 1.422782e-10 -674.4343 841.0334)" class="st1" width="5.5" height="5.9"/>
			
				<rect id="XMLID_398_" x="112.8" y="713.6" transform="matrix(1.411227e-10 -1 1 1.411227e-10 -601.0006 832.0356)" class="st1" width="5.5" height="5.9"/>
			
				<rect id="XMLID_397_" x="74.6" y="717.7" transform="matrix(1.394725e-10 -1 1 1.394725e-10 -643.2964 798.0933)" class="st1" width="5.5" height="5.9"/>
			
				<rect id="XMLID_396_" x="39.7" y="705" transform="matrix(1.421139e-10 -1 1 1.421139e-10 -665.5316 750.3667)" class="st1" width="5.5" height="5.9"/>
			
				<rect id="XMLID_395_" x="154.1" y="752.9" transform="matrix(1.406280e-10 -1 1 1.406280e-10 -598.9964 912.7664)" class="st1" width="5.5" height="5.9"/>
		</g>
		<g id="XMLID_385_">
			
				<rect id="XMLID_393_" x="171.6" y="765.4" transform="matrix(1.416183e-10 -1 1 1.416183e-10 -594.0059 942.6329)" class="st1" width="5.5" height="5.9"/>
			
				<rect id="XMLID_392_" x="217.9" y="704.4" transform="matrix(1.411227e-10 -1 1 1.411227e-10 -486.7184 927.9901)" class="st1" width="5.5" height="5.9"/>
			
				<rect id="XMLID_391_" x="256.9" y="762.6" transform="matrix(1.411227e-10 -1 1 1.411227e-10 -505.8872 1025.2415)" class="st1" width="5.5" height="5.9"/>
			
				<rect id="XMLID_390_" x="119.9" y="732.4" transform="matrix(1.411227e-10 -1 1 1.411227e-10 -612.6805 858.0737)" class="st1" width="5.5" height="5.9"/>
			
				<rect id="XMLID_389_" x="152.2" y="691.2" transform="matrix(1.411227e-10 -1 1 1.411227e-10 -539.2468 849.0759)" class="st1" width="5.5" height="5.9"/>
			
				<rect id="XMLID_388_" x="114" y="695.4" transform="matrix(1.411227e-10 -1 1 1.411227e-10 -581.5426 815.1336)" class="st1" width="5.5" height="5.9"/>
			
				<rect id="XMLID_387_" x="79.1" y="682.6" transform="matrix(1.401333e-10 -1 1 1.401333e-10 -603.7778 767.407)" class="st1" width="5.5" height="5.9"/>
			
				<rect id="XMLID_386_" x="193.5" y="730.6" transform="matrix(1.404628e-10 -1 1 1.404628e-10 -537.2426 929.8067)" class="st1" width="5.5" height="5.9"/>
		</g>
		
			<rect id="XMLID_384_" x="173" y="656.1" transform="matrix(1.411227e-10 -1 1 1.411227e-10 -483.3344 834.7916)" class="st1" width="5.5" height="5.9"/>
		
			<rect id="XMLID_383_" x="212" y="714.3" transform="matrix(1.407932e-10 -1 1 1.407932e-10 -502.5031 932.0429)" class="st1" width="5.5" height="5.9"/>
		
			<rect id="XMLID_382_" x="107.3" y="642.9" transform="matrix(1.424434e-10 -1 1 1.424434e-10 -535.8628 755.8774)" class="st1" width="5.5" height="5.9"/>
		
			<rect id="XMLID_381_" x="69.1" y="647.1" transform="matrix(1.422782e-10 -1 1 1.422782e-10 -578.1586 721.9351)" class="st1" width="5.5" height="5.9"/>
		
			<rect id="XMLID_380_" x="34.2" y="634.4" transform="matrix(1.401333e-10 -1 1 1.401333e-10 -600.3938 674.2085)" class="st1" width="5.5" height="5.9"/>
		
			<rect id="XMLID_379_" x="148.6" y="682.3" transform="matrix(1.407932e-10 -1 1 1.407932e-10 -533.8586 836.6082)" class="st1" width="5.5" height="5.9"/>
		<g id="XMLID_370_">
			<rect id="XMLID_378_" x="353.9" y="544.6" class="st1" width="5.5" height="5.5"/>
			<rect id="XMLID_377_" x="414.9" y="501.3" class="st1" width="5.5" height="5.5"/>
			<rect id="XMLID_376_" x="356.7" y="464.8" class="st1" width="5.5" height="5.5"/>
			<rect id="XMLID_375_" x="386.9" y="592.7" class="st1" width="5.5" height="5.5"/>
			<rect id="XMLID_374_" x="428.1" y="562.7" class="st1" width="5.5" height="5.5"/>
			<rect id="XMLID_373_" x="423.9" y="598.3" class="st1" width="5.5" height="5.5"/>
			<rect id="XMLID_372_" x="436.7" y="630.9" class="st1" width="5.5" height="5.5"/>
			<rect id="XMLID_371_" x="388.7" y="524" class="st1" width="5.5" height="5.5"/>
		</g>
		<g id="XMLID_361_">
			<rect id="XMLID_369_" x="288.6" y="637" class="st1" width="5.5" height="5.9"/>
			<rect id="XMLID_368_" x="349.6" y="683.4" class="st1" width="5.5" height="5.9"/>
			<rect id="XMLID_367_" x="291.4" y="722.4" class="st1" width="5.5" height="5.9"/>
			<rect id="XMLID_366_" x="321.6" y="585.4" class="st1" width="5.5" height="5.9"/>
			<rect id="XMLID_365_" x="362.8" y="617.7" class="st1" width="5.5" height="5.9"/>
			<rect id="XMLID_364_" x="358.6" y="579.5" class="st1" width="5.5" height="5.9"/>
			<rect id="XMLID_363_" x="371.4" y="544.6" class="st1" width="5.5" height="5.9"/>
			<rect id="XMLID_362_" x="323.4" y="659" class="st1" width="5.5" height="5.9"/>
		</g>
		<g id="XMLID_352_">
			
				<rect id="XMLID_360_" x="448.1" y="528.5" transform="matrix(-1 -1.320400e-12 1.320400e-12 -1 901.7807 1062.4374)" class="st1" width="5.5" height="5.5"/>
			
				<rect id="XMLID_359_" x="387.2" y="571.7" transform="matrix(-1 -6.604831e-13 6.604831e-13 -1 779.8504 1148.9449)" class="st1" width="5.5" height="5.5"/>
			
				<rect id="XMLID_358_" x="445.4" y="608.2" transform="matrix(-1 6.602382e-13 -6.602382e-13 -1 896.2705 1221.8552)" class="st1" width="5.5" height="5.5"/>
			
				<rect id="XMLID_357_" x="415.2" y="480.3" transform="matrix(-1 -1.320400e-12 1.320400e-12 -1 835.8962 966.0419)" class="st1" width="5.5" height="5.5"/>
			
				<rect id="XMLID_356_" x="374" y="510.3" transform="matrix(-1 -1.320400e-12 1.320400e-12 -1 753.4646 1026.2094)" class="st1" width="5.5" height="5.5"/>
			
				<rect id="XMLID_355_" x="378.2" y="474.8" transform="matrix(-1 -6.604831e-13 6.604831e-13 -1 761.8181 955.0215)" class="st1" width="5.5" height="5.5"/>
			
				<rect id="XMLID_354_" x="365.4" y="442.1" transform="matrix(-1 -1.980760e-12 1.980760e-12 -1 736.3267 889.6941)" class="st1" width="5.5" height="5.5"/>
			
				<rect id="XMLID_353_" x="413.3" y="549" transform="matrix(-1 -1.320400e-12 1.320400e-12 -1 832.1912 1103.4639)" class="st1" width="5.5" height="5.5"/>
		</g>
		<g id="XMLID_343_">
			
				<rect id="XMLID_351_" x="513.4" y="435.6" transform="matrix(-1 -1.855233e-10 1.855233e-10 -1 1032.3763 877.0485)" class="st1" width="5.5" height="5.9"/>
			
				<rect id="XMLID_350_" x="452.5" y="389.3" transform="matrix(-1 -1.861832e-10 1.861832e-10 -1 910.446 784.4039)" class="st1" width="5.5" height="5.9"/>
			
				<rect id="XMLID_349_" x="510.7" y="350.2" transform="matrix(-1 -1.855233e-10 1.855233e-10 -1 1026.8661 706.3214)" class="st1" width="5.5" height="5.9"/>
			
				<rect id="XMLID_348_" x="480.5" y="487.2" transform="matrix(-1 -1.861832e-10 1.861832e-10 -1 966.4918 980.2824)" class="st1" width="5.5" height="5.9"/>
			
				<rect id="XMLID_347_" x="439.3" y="455" transform="matrix(-1 -1.861832e-10 1.861832e-10 -1 884.0602 915.8466)" class="st1" width="5.5" height="5.9"/>
			
				<rect id="XMLID_346_" x="443.5" y="493.1" transform="matrix(-1 -1.861832e-10 1.861832e-10 -1 892.4137 992.0847)" class="st1" width="5.5" height="5.9"/>
			
				<rect id="XMLID_345_" x="430.7" y="528.1" transform="matrix(-1 -1.809016e-10 1.809016e-10 -1 866.9224 1062.0465)" class="st1" width="5.5" height="5.9"/>
			
				<rect id="XMLID_344_" x="478.6" y="413.6" transform="matrix(-1 -1.861832e-10 1.861832e-10 -1 962.7868 833.1115)" class="st1" width="5.5" height="5.9"/>
		</g>
		<g id="XMLID_230_">
			
				<rect id="XMLID_342_" x="1265.2" y="8.8" transform="matrix(-9.111130e-11 1 -1 -9.111130e-11 1279.5387 -1256.4205)" class="st1" width="5.5" height="5.5"/>
			
				<rect id="XMLID_341_" x="1270.7" y="3.3" transform="matrix(-9.111130e-11 1 -1 -9.111130e-11 1279.5387 -1267.4409)" class="st1" width="5.5" height="5.5"/>
			
				<rect id="XMLID_340_" x="1257.1" y="21.5" transform="matrix(-9.111130e-11 1 -1 -9.111130e-11 1284.0908 -1235.6249)" class="st1" width="5.5" height="5.5"/>
			
				<rect id="XMLID_339_" x="1243.6" y="-0.3" transform="matrix(-8.913066e-11 1 -1 -8.913066e-11 1248.8485 -1243.9063)" class="st1" width="5.5" height="5.5"/>
			
				<rect id="XMLID_338_" x="1218.9" y="6" transform="matrix(-8.913066e-11 1 -1 -8.913066e-11 1230.4598 -1212.8519)" class="st1" width="5.5" height="5.5"/>
			
				<rect id="XMLID_337_" x="1257.1" y="3.3" transform="matrix(-9.111130e-11 1 -1 -9.111130e-11 1265.9067 -1253.809)" class="st1" width="5.5" height="5.5"/>
			
				<rect id="XMLID_336_" x="1273.5" y="35" transform="matrix(-8.846986e-11 1 -1 -8.846986e-11 1313.9744 -1238.5154)" class="st1" width="5.5" height="5.5"/>
			
				<rect id="XMLID_335_" x="1268" y="29.5" transform="matrix(-9.111130e-11 1 -1 -9.111130e-11 1302.954 -1238.5154)" class="st1" width="5.5" height="5.5"/>
			
				<rect id="XMLID_334_" x="1237.5" y="18.7" transform="matrix(-8.913066e-11 1 -1 -8.913066e-11 1261.7448 -1218.7891)" class="st1" width="5.5" height="5.5"/>
			
				<rect id="XMLID_333_" x="1199.7" y="50.9" transform="matrix(-8.913066e-11 1 -1 -8.913066e-11 1256.1545 -1148.7996)" class="st1" width="5.5" height="5.5"/>
			
				<rect id="XMLID_332_" x="1235.3" y="46.7" transform="matrix(-9.045049e-11 1 -1 -9.045049e-11 1287.5718 -1188.5702)" class="st1" width="5.5" height="5.5"/>
			
				<rect id="XMLID_331_" x="1254.3" y="39.4" transform="matrix(-8.913066e-11 1 -1 -8.913066e-11 1299.2408 -1214.9647)" class="st1" width="5.5" height="5.5"/>
			
				<rect id="XMLID_330_" x="1226" y="32.2" transform="matrix(-8.913066e-11 1 -1 -8.913066e-11 1263.7003 -1193.7516)" class="st1" width="5.5" height="5.5"/>
			
				<rect id="XMLID_329_" x="1268" y="59.5" transform="matrix(-9.045049e-11 1 -1 -9.045049e-11 1332.9811 -1208.4883)" class="st1" width="5.5" height="5.5"/>
			
				<rect id="XMLID_328_" x="1161.1" y="11.6" transform="matrix(-8.913066e-11 1 -1 -8.913066e-11 1178.1639 -1149.5355)" class="st1" width="5.5" height="5.5"/>
			<g id="XMLID_319_">
				
					<rect id="XMLID_327_" x="1143.7" y="76.9" transform="matrix(1.776002e-10 -1 1 1.776002e-10 1066.8004 1226.1761)" class="st1" width="5.5" height="5.5"/>
				
					<rect id="XMLID_326_" x="1187" y="16" transform="matrix(1.795809e-10 -1 1 1.795809e-10 1171.0194 1208.4648)" class="st1" width="5.5" height="5.5"/>
				
					<rect id="XMLID_325_" x="1223.4" y="74.2" transform="matrix(1.802417e-10 -1 1 1.802417e-10 1149.2644 1303.13)" class="st1" width="5.5" height="5.5"/>
				
					<rect id="XMLID_324_" x="1095.5" y="44" transform="matrix(1.795809e-10 -1 1 1.795809e-10 1051.5449 1145.0363)" class="st1" width="5.5" height="5.5"/>
				
					<rect id="XMLID_323_" x="1125.6" y="2.8" transform="matrix(1.795809e-10 -1 1 1.795809e-10 1122.8445 1133.9042)" class="st1" width="5.5" height="5.5"/>
				
					<rect id="XMLID_322_" x="1090" y="7" transform="matrix(1.795809e-10 -1 1 1.795809e-10 1083.0737 1102.4869)" class="st1" width="5.5" height="5.5"/>
				
					<rect id="XMLID_321_" x="1057.4" y="-5.8" transform="matrix(1.795809e-10 -1 1 1.795809e-10 1063.1558 1057.0776)" class="st1" width="5.5" height="5.5"/>
				
					<rect id="XMLID_320_" x="1164.2" y="42.1" transform="matrix(1.776002e-10 -1 1 1.776002e-10 1122.1084 1211.8948)" class="st1" width="5.5" height="5.5"/>
			</g>
			
				<rect id="XMLID_318_" x="1122.9" y="98.1" transform="matrix(8.913054e-11 -1 1 8.913054e-11 1024.7644 1226.474)" class="st1" width="5.5" height="5.5"/>
			<g id="XMLID_309_">
				
					<rect id="XMLID_317_" x="1067.9" y="92.3" transform="matrix(-1.836970e-16 1 -1 -1.836970e-16 1165.7383 -975.6564)" class="st1" width="5.5" height="5.5"/>
				
					<rect id="XMLID_316_" x="1111.2" y="153.3" transform="matrix(-1.836970e-16 1 -1 -1.836970e-16 1269.9573 -957.945)" class="st1" width="5.5" height="5.5"/>
				
					<rect id="XMLID_315_" x="1147.7" y="95" transform="matrix(-1.836970e-16 1 -1 -1.836970e-16 1248.2024 -1052.6102)" class="st1" width="5.5" height="5.5"/>
				
					<rect id="XMLID_314_" x="1019.7" y="125.2" transform="matrix(-1.836970e-16 1 -1 -1.836970e-16 1150.4829 -894.5164)" class="st1" width="5.5" height="5.5"/>
				
					<rect id="XMLID_313_" x="1049.8" y="166.4" transform="matrix(-1.836970e-16 1 -1 -1.836970e-16 1221.7823 -883.3843)" class="st1" width="5.5" height="5.5"/>
				
					<rect id="XMLID_312_" x="1014.2" y="162.3" transform="matrix(-1.836970e-16 1 -1 -1.836970e-16 1182.0117 -851.9671)" class="st1" width="5.5" height="5.5"/>
				
					<rect id="XMLID_311_" x="981.6" y="175" transform="matrix(-1.836970e-16 1 -1 -1.836970e-16 1162.0938 -806.5577)" class="st1" width="5.5" height="5.5"/>
				
					<rect id="XMLID_310_" x="1088.5" y="127.1" transform="matrix(-1.836970e-16 1 -1 -1.836970e-16 1221.0464 -961.3749)" class="st1" width="5.5" height="5.5"/>
			</g>
			<g id="XMLID_300_">
				
					<rect id="XMLID_308_" x="975.2" y="26.8" transform="matrix(-1.861837e-10 1 -1 -1.861837e-10 1007.7461 -948.2598)" class="st1" width="5.5" height="5.9"/>
				
					<rect id="XMLID_307_" x="928.9" y="87.8" transform="matrix(-1.861837e-10 1 -1 -1.861837e-10 1022.389 -840.9723)" class="st1" width="5.5" height="5.9"/>
				
					<rect id="XMLID_306_" x="889.9" y="29.5" transform="matrix(-1.855229e-10 1 -1 -1.855229e-10 925.1376 -860.1411)" class="st1" width="5.5" height="5.9"/>
				
					<rect id="XMLID_305_" x="1026.9" y="59.7" transform="matrix(-1.848630e-10 1 -1 -1.848630e-10 1092.3053 -966.9344)" class="st1" width="5.5" height="5.9"/>
				
					<rect id="XMLID_304_" x="994.6" y="101" transform="matrix(-1.868436e-10 1 -1 -1.868436e-10 1101.3032 -893.5007)" class="st1" width="5.5" height="5.9"/>
				
					<rect id="XMLID_303_" x="1032.8" y="96.8" transform="matrix(-1.868436e-10 1 -1 -1.868436e-10 1135.2455 -935.7965)" class="st1" width="5.5" height="5.9"/>
				
					<rect id="XMLID_302_" x="1067.7" y="109.5" transform="matrix(-1.875035e-10 1 -1 -1.875035e-10 1182.972 -958.0317)" class="st1" width="5.5" height="5.9"/>
				
					<rect id="XMLID_301_" x="953.3" y="61.6" transform="matrix(-1.855229e-10 1 -1 -1.855229e-10 1020.5723 -891.4965)" class="st1" width="5.5" height="5.9"/>
			</g>
			<g id="XMLID_291_">
				
					<rect id="XMLID_299_" x="1154.8" y="32.6" transform="matrix(-1.868436e-10 1 -1 -1.868436e-10 1193.0963 -1121.9578)" class="st1" width="5.5" height="5.9"/>
				
					<rect id="XMLID_298_" x="1108.4" y="93.6" transform="matrix(-1.848630e-10 1 -1 -1.848630e-10 1207.7391 -1014.6702)" class="st1" width="5.5" height="5.9"/>
				
					<rect id="XMLID_297_" x="1069.4" y="35.4" transform="matrix(-1.848630e-10 1 -1 -1.848630e-10 1110.4878 -1033.839)" class="st1" width="5.5" height="5.9"/>
				
					<rect id="XMLID_296_" x="1206.4" y="65.6" transform="matrix(-1.868436e-10 1 -1 -1.868436e-10 1277.6555 -1140.6323)" class="st1" width="5.5" height="5.9"/>
				
					<rect id="XMLID_295_" x="1174.2" y="106.8" transform="matrix(-1.848630e-10 1 -1 -1.848630e-10 1286.6533 -1067.1986)" class="st1" width="5.5" height="5.9"/>
				
					<rect id="XMLID_294_" x="1212.3" y="102.6" transform="matrix(-1.868436e-10 1 -1 -1.868436e-10 1320.5956 -1109.4944)" class="st1" width="5.5" height="5.9"/>
				
					<rect id="XMLID_293_" x="1247.3" y="115.3" transform="matrix(-1.868436e-10 1 -1 -1.868436e-10 1368.3223 -1131.7296)" class="st1" width="5.5" height="5.9"/>
				
					<rect id="XMLID_292_" x="1132.8" y="67.4" transform="matrix(-1.848630e-10 1 -1 -1.848630e-10 1205.9225 -1065.1945)" class="st1" width="5.5" height="5.9"/>
			</g>
			<g id="XMLID_282_">
				
					<rect id="XMLID_290_" x="1141.3" y="0.6" transform="matrix(-1.848630e-10 1 -1 -1.848630e-10 1147.6132 -1140.5538)" class="st1" width="5.5" height="5.9"/>
				
					<rect id="XMLID_289_" x="1095" y="61.5" transform="matrix(-1.868436e-10 1 -1 -1.868436e-10 1162.256 -1033.2664)" class="st1" width="5.5" height="5.9"/>
				
					<rect id="XMLID_288_" x="1056" y="3.3" transform="matrix(-1.875035e-10 1 -1 -1.875035e-10 1065.0046 -1052.4352)" class="st1" width="5.5" height="5.9"/>
				
					<rect id="XMLID_287_" x="1192.9" y="33.5" transform="matrix(-1.875035e-10 1 -1 -1.875035e-10 1232.1724 -1159.2285)" class="st1" width="5.5" height="5.9"/>
				
					<rect id="XMLID_286_" x="1160.7" y="74.7" transform="matrix(-1.855229e-10 1 -1 -1.855229e-10 1241.1702 -1085.7948)" class="st1" width="5.5" height="5.9"/>
				
					<rect id="XMLID_285_" x="1198.8" y="70.6" transform="matrix(-1.855229e-10 1 -1 -1.855229e-10 1275.1124 -1128.0906)" class="st1" width="5.5" height="5.9"/>
				
					<rect id="XMLID_284_" x="1233.8" y="83.3" transform="matrix(-1.855229e-10 1 -1 -1.855229e-10 1322.8391 -1150.3258)" class="st1" width="5.5" height="5.9"/>
				
					<rect id="XMLID_283_" x="1119.4" y="35.4" transform="matrix(-1.848630e-10 1 -1 -1.848630e-10 1160.4393 -1083.7905)" class="st1" width="5.5" height="5.9"/>
			</g>
			<g id="XMLID_273_">
				
					<rect id="XMLID_281_" x="1101.9" y="22.9" transform="matrix(-1.848630e-10 1 -1 -1.848630e-10 1130.5729 -1078.8)" class="st1" width="5.5" height="5.9"/>
				
					<rect id="XMLID_280_" x="1055.6" y="83.9" transform="matrix(-1.848630e-10 1 -1 -1.848630e-10 1145.2157 -971.5126)" class="st1" width="5.5" height="5.9"/>
				
					<rect id="XMLID_279_" x="1016.6" y="25.7" transform="matrix(-1.868436e-10 1 -1 -1.868436e-10 1047.9644 -990.6813)" class="st1" width="5.5" height="5.9"/>
				
					<rect id="XMLID_278_" x="1153.5" y="55.9" transform="matrix(-1.848630e-10 1 -1 -1.848630e-10 1215.1321 -1097.4747)" class="st1" width="5.5" height="5.9"/>
				
					<rect id="XMLID_277_" x="1121.3" y="97.1" transform="matrix(-1.868436e-10 1 -1 -1.868436e-10 1224.1299 -1024.041)" class="st1" width="5.5" height="5.9"/>
				
					<rect id="XMLID_276_" x="1159.4" y="92.9" transform="matrix(-1.868436e-10 1 -1 -1.868436e-10 1258.0723 -1066.3368)" class="st1" width="5.5" height="5.9"/>
				
					<rect id="XMLID_275_" x="1194.4" y="105.7" transform="matrix(-1.855229e-10 1 -1 -1.855229e-10 1305.7988 -1088.572)" class="st1" width="5.5" height="5.9"/>
				
					<rect id="XMLID_274_" x="1080" y="57.7" transform="matrix(-1.848630e-10 1 -1 -1.848630e-10 1143.399 -1022.0367)" class="st1" width="5.5" height="5.9"/>
			</g>
			
				<rect id="XMLID_272_" x="1100.5" y="132.2" transform="matrix(-1.868436e-10 1 -1 -1.868436e-10 1238.4142 -968.1286)" class="st1" width="5.5" height="5.9"/>
			
				<rect id="XMLID_271_" x="1061.5" y="74" transform="matrix(-1.855229e-10 1 -1 -1.855229e-10 1141.1628 -987.2973)" class="st1" width="5.5" height="5.9"/>
			
				<rect id="XMLID_270_" x="1166.2" y="145.4" transform="matrix(-1.868436e-10 1 -1 -1.868436e-10 1317.3285 -1020.657)" class="st1" width="5.5" height="5.9"/>
			
				<rect id="XMLID_269_" x="1204.4" y="141.2" transform="matrix(-1.868436e-10 1 -1 -1.868436e-10 1351.2708 -1062.9528)" class="st1" width="5.5" height="5.9"/>
			
				<rect id="XMLID_268_" x="1239.3" y="154" transform="matrix(-1.868436e-10 1 -1 -1.868436e-10 1398.9973 -1085.188)" class="st1" width="5.5" height="5.9"/>
			
				<rect id="XMLID_267_" x="1124.9" y="106" transform="matrix(-1.848630e-10 1 -1 -1.848630e-10 1236.5977 -1018.6528)" class="st1" width="5.5" height="5.9"/>
			<g id="XMLID_258_">
				
					<rect id="XMLID_266_" x="919.6" y="244.1" transform="matrix(-1 4.489508e-11 -4.489508e-11 -1 1844.6125 493.8004)" class="st1" width="5.5" height="5.5"/>
				
					<rect id="XMLID_265_" x="858.6" y="287.4" transform="matrix(-1 4.291444e-11 -4.291444e-11 -1 1722.6823 580.308)" class="st1" width="5.5" height="5.5"/>
				
					<rect id="XMLID_264_" x="916.8" y="323.9" transform="matrix(-1 4.489508e-11 -4.489508e-11 -1 1839.1024 653.2182)" class="st1" width="5.5" height="5.5"/>
				
					<rect id="XMLID_263_" x="886.6" y="195.9" transform="matrix(-1 4.555544e-11 -4.555544e-11 -1 1778.728 397.4049)" class="st1" width="5.5" height="5.5"/>
				
					<rect id="XMLID_262_" x="845.4" y="226" transform="matrix(-1 4.357480e-11 -4.357480e-11 -1 1696.2965 457.5724)" class="st1" width="5.5" height="5.5"/>
				
					<rect id="XMLID_261_" x="849.6" y="190.4" transform="matrix(-1 4.555544e-11 -4.555544e-11 -1 1704.65 386.3845)" class="st1" width="5.5" height="5.5"/>
				
					<rect id="XMLID_260_" x="836.8" y="157.8" transform="matrix(-1 4.555544e-11 -4.555544e-11 -1 1679.1586 321.0571)" class="st1" width="5.5" height="5.5"/>
				
					<rect id="XMLID_259_" x="884.8" y="264.7" transform="matrix(-1 4.489508e-11 -4.489508e-11 -1 1775.0231 534.8269)" class="st1" width="5.5" height="5.5"/>
			</g>
			<g id="XMLID_249_">
				
					<rect id="XMLID_257_" x="984.8" y="151.3" transform="matrix(-1 -1.391426e-10 1.391426e-10 -1 1975.2083 308.4116)" class="st1" width="5.5" height="5.9"/>
				
					<rect id="XMLID_256_" x="923.9" y="104.9" transform="matrix(-1 -1.427735e-10 1.427735e-10 -1 1853.278 215.767)" class="st1" width="5.5" height="5.9"/>
				
					<rect id="XMLID_255_" x="982.1" y="65.9" transform="matrix(-1 -1.422783e-10 1.422783e-10 -1 1969.698 137.6843)" class="st1" width="5.5" height="5.9"/>
				
					<rect id="XMLID_254_" x="951.9" y="202.9" transform="matrix(-1 -1.393074e-10 1.393074e-10 -1 1909.3237 411.6454)" class="st1" width="5.5" height="5.9"/>
				
					<rect id="XMLID_253_" x="910.7" y="170.7" transform="matrix(-1 -1.399677e-10 1.399677e-10 -1 1826.8921 347.2096)" class="st1" width="5.5" height="5.9"/>
				
					<rect id="XMLID_252_" x="914.9" y="208.8" transform="matrix(-1 -1.406281e-10 1.406281e-10 -1 1835.2456 423.4476)" class="st1" width="5.5" height="5.9"/>
				
					<rect id="XMLID_251_" x="902.1" y="243.8" transform="matrix(-1 -1.412880e-10 1.412880e-10 -1 1809.7543 493.4095)" class="st1" width="5.5" height="5.9"/>
				
					<rect id="XMLID_250_" x="950.1" y="129.3" transform="matrix(-1 -1.393074e-10 1.393074e-10 -1 1905.6187 264.4745)" class="st1" width="5.5" height="5.9"/>
			</g>
			<g id="XMLID_240_">
				<rect id="XMLID_248_" x="825.4" y="260.2" class="st1" width="5.5" height="5.5"/>
				<rect id="XMLID_247_" x="886.3" y="217" class="st1" width="5.5" height="5.5"/>
				<rect id="XMLID_246_" x="828.1" y="180.5" class="st1" width="5.5" height="5.5"/>
				<rect id="XMLID_245_" x="858.3" y="308.4" class="st1" width="5.5" height="5.5"/>
				<rect id="XMLID_244_" x="899.5" y="278.3" class="st1" width="5.5" height="5.5"/>
				<rect id="XMLID_243_" x="895.3" y="313.9" class="st1" width="5.5" height="5.5"/>
				<rect id="XMLID_242_" x="908.1" y="346.6" class="st1" width="5.5" height="5.5"/>
				<rect id="XMLID_241_" x="860.1" y="239.7" class="st1" width="5.5" height="5.5"/>
			</g>
			<g id="XMLID_231_">
				<rect id="XMLID_239_" x="760.1" y="352.7" class="st1" width="5.5" height="5.9"/>
				<rect id="XMLID_238_" x="821" y="399.1" class="st1" width="5.5" height="5.9"/>
				<rect id="XMLID_237_" x="762.8" y="438.1" class="st1" width="5.5" height="5.9"/>
				<rect id="XMLID_236_" x="793" y="301.1" class="st1" width="5.5" height="5.9"/>
				<rect id="XMLID_235_" x="834.2" y="333.3" class="st1" width="5.5" height="5.9"/>
				<rect id="XMLID_234_" x="830" y="295.2" class="st1" width="5.5" height="5.9"/>
				<rect id="XMLID_233_" x="842.8" y="260.2" class="st1" width="5.5" height="5.9"/>
				<rect id="XMLID_232_" x="794.9" y="374.7" class="st1" width="5.5" height="5.9"/>
			</g>
		</g>
	</g>
</mask>
<radialGradient id="XMLID_3_" cx="48.6859" cy="95.6206" r="489.7518" gradientTransform="matrix(5.081700e-11 -1 -1.1319 -4.489700e-11 748.2307 448.6859)" gradientUnits="userSpaceOnUse">
	<stop  offset="0" style="stop-color:#E3E4E5"/>
	<stop  offset="1" style="stop-color:#292562"/>
</radialGradient>
<polygon id="XMLID_205_" class="st2" points="0,0 0,800 1280,800 1280,0 "/>
</svg>
